<svg width="1920" height="960" viewBox="0 0 1920 960" fill="none" xmlns="http://www.w3.org/2000/svg">
<g filter="url(#filter0_f_513_6)">
<path d="M116.744 -232.58L1236.7 429.668L-63.9503 1004.51L-457.035 331.403L116.744 -232.58Z" fill="#15C5FC" fill-opacity="0.24"/>
<path d="M116.834 -231.957L1235.62 429.599L-63.7454 1003.87L-456.405 331.494L116.834 -231.957Z" stroke="black"/>
</g>
<g opacity="0.4" filter="url(#filter1_f_513_6)">
<path d="M1815.38 79.9466L1558.84 1426.09L962.202 1116.22L1815.38 79.9466Z" fill="#4FD5FF"/>
<path d="M962.985 1116.06L1814.53 81.7755L1558.47 1425.34L962.985 1116.06Z" stroke="black"/>
</g>
<g opacity="0.3" filter="url(#filter2_f_513_6)">
<path d="M1425.02 715.431L2055.49 2004.22L242.85 1416.43L1425.02 715.431Z" fill="#14FF00"/>
<path d="M244.07 1416.3L1424.82 716.141L2054.54 2003.38L244.07 1416.3Z" stroke="black"/>
</g>
<g opacity="0.8" filter="url(#filter3_b_513_6)">
<rect width="1920" height="960" fill="#DDF1F2" fill-opacity="0.72"/>
<rect x="0.5" y="0.5" width="1919" height="959" stroke="black"/>
</g>
<defs>
<filter id="filter0_f_513_6" x="-657.035" y="-432.58" width="2093.74" height="1637.09" filterUnits="userSpaceOnUse" color-interpolation-filters="sRGB">
<feFlood flood-opacity="0" result="BackgroundImageFix"/>
<feBlend mode="normal" in="SourceGraphic" in2="BackgroundImageFix" result="shape"/>
<feGaussianBlur stdDeviation="100" result="effect1_foregroundBlur_513_6"/>
</filter>
<filter id="filter1_f_513_6" x="712.202" y="-170.053" width="1353.18" height="1846.14" filterUnits="userSpaceOnUse" color-interpolation-filters="sRGB">
<feFlood flood-opacity="0" result="BackgroundImageFix"/>
<feBlend mode="normal" in="SourceGraphic" in2="BackgroundImageFix" result="shape"/>
<feGaussianBlur stdDeviation="125" result="effect1_foregroundBlur_513_6"/>
</filter>
<filter id="filter2_f_513_6" x="-7.14984" y="465.431" width="2312.64" height="1788.79" filterUnits="userSpaceOnUse" color-interpolation-filters="sRGB">
<feFlood flood-opacity="0" result="BackgroundImageFix"/>
<feBlend mode="normal" in="SourceGraphic" in2="BackgroundImageFix" result="shape"/>
<feGaussianBlur stdDeviation="125" result="effect1_foregroundBlur_513_6"/>
</filter>
<filter id="filter3_b_513_6" x="-100" y="-100" width="2120" height="1160" filterUnits="userSpaceOnUse" color-interpolation-filters="sRGB">
<feFlood flood-opacity="0" result="BackgroundImageFix"/>
<feGaussianBlur in="BackgroundImageFix" stdDeviation="50"/>
<feComposite in2="SourceAlpha" operator="in" result="effect1_backgroundBlur_513_6"/>
<feBlend mode="normal" in="SourceGraphic" in2="effect1_backgroundBlur_513_6" result="shape"/>
</filter>
</defs>
</svg>
